<?xml version="1.0" encoding="utf-8"?>
<!-- Generator: Adobe Illustrator 16.0.0, SVG Export Plug-In . SVG Version: 6.00 Build 0)  -->
<!DOCTYPE svg PUBLIC "-//W3C//DTD SVG 1.1//EN" "http://www.w3.org/Graphics/SVG/1.1/DTD/svg11.dtd">
<svg version="1.1" id="Layer_1" xmlns="http://www.w3.org/2000/svg" xmlns:xlink="http://www.w3.org/1999/xlink" x="0px" y="0px"
	 width="299.277px" height="300.59px" viewBox="156 246 299.277 300.59" enable-background="new 156 246 299.277 300.59"
	 xml:space="preserve">
<g>
	<g>
		<defs>
			<ellipse id="SVGID_1_" cx="305.739" cy="396.592" rx="149.538" ry="149.998"/>
		</defs>
		<clipPath id="SVGID_2_">
			<use xlink:href="#SVGID_1_"  overflow="visible"/>
		</clipPath>
		<ellipse clip-path="url(#SVGID_2_)" fill="#010101" cx="305.739" cy="396.593" rx="149.739" ry="150.197"/>
	</g>
	<g>
		<defs>
			<ellipse id="SVGID_3_" cx="305.739" cy="396.592" rx="149.538" ry="149.998"/>
		</defs>
		<clipPath id="SVGID_4_">
			<use xlink:href="#SVGID_3_"  overflow="visible"/>
		</clipPath>
		<g clip-path="url(#SVGID_4_)">
			<path fill="#E2231A" d="M264.04,252.21l-13.675,8.44l-51.547,30.585C215.378,273.573,240.594,258.936,264.04,252.21"/>
			<path fill="#E2231A" d="M281.764,248.29c-2.272,2.003-6.153,3.717-8.735,5.641l-26.565,16.219l-29.902,17.744L187.46,304.9
				c-0.24-0.184-0.444,0.134-0.667,0.199c1.691-2.768,4.207-5.239,6.255-7.957l1.296-1.227l50.921-30.215
				c7.625-4.982,16.473-9.447,23.51-14.537C273.038,249.875,277.377,248.932,281.764,248.29"/>
			<path fill="#E2231A" d="M297.235,246.621c-11.856,7.428-22.755,13.829-35.461,21.369l-28.604,17.298l-41.497,24.296
				c-4.232,2.771-9.16,5.697-13.573,8.056l5.088-8.049l17.633-10.463l53.913-31.992c10.468-6.47,20.912-12.537,31.967-19.554
				C290.199,247.204,293.719,246.749,297.235,246.621"/>
			<path fill="#E2231A" d="M302.131,246.396l6.984,0.101l-1.539,1.37l-27.924,16.896l-13.096,8.098l-70.908,41.881
				c-6.908,4.098-16.281,9.66-23.768,14.101c0.954-2.46,2.392-4.554,3.637-6.859c14.146-8.852,28.001-16.876,41.733-25.547
				l62.552-36.921L302.131,246.396z"/>
			<path fill="#E2231A" d="M313.682,246.596c2.205,0.194,4.432,0.31,6.645,0.629c-2.305,2.282-6.271,3.852-8.873,5.854
				l-47.778,28.351l-96.235,57.103c0.561-2.028,1.686-3.874,2.478-5.846l7.093-4.666l33.906-20.575l9.674-5.937l46.896-27.634
				L313.682,246.596z"/>
			<path fill="#E2231A" d="M324.841,247.681c1.714,0.355,3.324,0.314,5.017,0.747l-0.099,0.384l-27.829,16.841l-11.788,7.321
				l-59.019,35.281l-64.077,37.761l-3.043,1.807c0.326-2.088,1.349-4.001,2.14-5.973l72.034-43.396l10.714-6.49l29.045-17.102
				L324.841,247.681z"/>
			<path fill="#E2231A" d="M339.387,250.286l-2.33,1.579l-43.181,26.08l-14.931,8.858l-27.006,16.351l-68.367,40.109
				c-0.288-0.154-0.541,0.19-0.762,0.257l-0.281,0.624l-21.082,12.248l1.471-5.443c15.555-9.23,29.665-18.257,45.85-27.858
				l125.066-74.017L339.387,250.286z"/>
			<path fill="#E2231A" d="M342.148,251.194c1.877-0.135,3.74,0.916,5.637,1.358l-13.528,8.354l-35.208,21.022l-22.902,13.915
				l-103.953,61.488l-12.812,7.472l-0.143-0.243c0.548-1.827,0.622-3.242,1.17-5.07l75.744-45.4L342.148,251.194z"/>
			<path fill="#E2231A" d="M350.999,253.455l4.724,1.574l-16.332,10.018l-38.358,23.087L157.838,373.1
				c-0.069-1.656,0.634-3.445,0.738-5.142l22.562-13.714l45.513-27.657l33.032-19.405L350.999,253.455z"/>
			<path fill="#E2231A" d="M358.49,256.062l4.387,1.775l-2.42,1.76l-28.744,17.059l-25.268,15.317l-44.001,26.24l-63.528,37.698
				l-0.098,0.383l-0.059-0.098l-41.825,24.624c-0.38-1.408,0.265-3.293,0.398-4.939l2.369-1.731l35.266-20.928l62.411-37.488
				l94.244-55.728L358.49,256.062z"/>
			<path fill="#E2231A" d="M199.264,357.6l26.087-15.48l139.135-82.559c1.818-1.339,3.591,0.875,5.391,1.377
				c-7.743,5.115-16.242,9.833-24.572,14.841l-41.802,25l-14.784,9.099l-100.775,59.797l-27.092,15.88l-4.541,2.694
				c0.047-1.792-0.546-4.443,1.318-5.484l41.355-24.864l-0.459-0.774C198.921,356.692,198.887,357.627,199.264,357.6"/>
			<path fill="#E2231A" d="M372.508,262.182l3.854,2.092l-8.891,5.601l-56.273,33.522c-13.083,7.893-28.011,17.077-42.32,25.438
				l-112.862,66.837c0.182-1.673-0.225-3.457,0.399-4.937l32.178-19.421l61.509-36.693l10.773-6.395l34.388-20.535l0.04-0.153
				l51.652-30.52L372.508,262.182z"/>
			<path fill="#E2231A" d="M378.6,265.622c1.422,0.527,2.478,1.535,3.9,2.062l-0.523,0.769l-23.043,13.674l-86.664,51.88
				l-50.773,30.129l-65.323,38.631L156,398.295c7.557-4.549,14.148-8.852,22.157-13.409l54.069-32.278l65.221-39.026l16.901-10.159
				L378.6,265.622z"/>
			<path fill="#E2231A" d="M373.54,275.81l11.108-6.595c1.385,0.683,2.635,1.575,3.901,2.391l-12.088,7.368
				c-0.481-0.041-0.856-0.014-1.165-0.419l-54.154,32.136c-0.541,0.189-1.026,0.803-1.684,1.129c0.82,1.603-1.963,1.753-2.45,2.693
				l-7.776,4.616l-1.463-0.375l-47.354,27.97l-13.478,7.997c-0.401,1.415-1.506,2.525-2.876,3.078
				c-0.453,0.007-0.606-0.358-0.894-0.515l-35.605,21.127l-36.805,22.296l-0.195,0.441c-4.474,2.918-9.439,5.668-13.952,8.41
				l-0.268-4.412l29.802-18.143l30.666-18.327l13.336-8.239l80.736-47.774L373.54,275.81z"/>
			<path fill="#E2231A" d="M247.212,357.495c0.905,0.312,1.742,0.077,2.612-0.111l50.332-29.995l5.029-4.292l21.148-12.353
				c1.194-0.188,2.392-0.373,3.533-0.984l39.336-23.537l1.237-1.322l20.291-12.039c0.91,1.091,2.256,1.599,3.232,2.586
				l-23.439,14.104c-1.381,0.754-3.348,2.837-5.078,2.23l-30.147,17.888c-0.231,0.596-0.155,0.943-0.659,1.307
				c-11.838,7.353-24.158,14.335-35.075,21.141c-0.959-1.065-2.034,0.096-2.951,0.312L266.707,350.5l-14.831,8.802l-0.14,0.866
				c-5.412,3.866-11.587,7.661-17.286,10.717c-0.395-0.224-0.904-0.313-1.367-0.432l-47.675,28.745l-0.97,1.228l-26.667,15.824
				c-0.387,0.23-0.547-0.261-0.488-0.491l-0.417-3.674c8.04-4.837,16.325-10.472,24.704-14.07l24.629-14.745l27.674-16.551
				C236.9,362.572,242.775,360.586,247.212,357.495"/>
			<path fill="#E2231A" d="M252.232,361.442c0.623,0.61,1.446-0.205,2.281,0.213l43.818-25.998l1.353-2.241
				c11.628-6.705,24.634-14.291,36.991-21.428c0.726-0.431,1.535-0.388,2.325-0.597l25.846-15.336l0.631-1.027l30.246-18.272
				c1.258,0.689,2.353,1.543,3.405,2.55l-0.226,0.724l-30.24,17.943c-1.596,0.946-3.464,2.971-5.372,2.4l-20.965,12.441
				l-0.052,1.012l-41.212,24.779c-0.694,0.479-1.213-0.063-1.973-0.136l-27.249,16.167l-14.744,8.947
				c0.063,0.876-0.834,1.017-0.855,1.75l-19.808,11.752l-1.309-0.335l-41.645,24.71c0.307,0.407-0.454,0.336-0.294,0.828
				l-34.782,20.64l-0.663-4.312l30.63-18.173l1.415-0.255l44.003-26.239c0.67-0.854,0.745-2.27,1.825-2.649L252.232,361.442z"/>
			<path fill="#E2231A" d="M259.892,365.65l16.81-9.977l23.568-14.114c0.434-0.258,0.34-0.855,0.515-1.22l3.82-2.593l29.622-17.447
				c2.773-1.712,6.34-3.63,9.219-5.602c-0.062,0.561,0.906-0.014,1.406,0.277l18.551-11.008l0.236-0.924l36.859-21.872
				c0.259,0.106,0.529,0.012,0.693-0.152c1.027,0.959,2.143,1.735,3.07,2.752l-40.533,24.379l-1.166-0.094L347.49,317l-0.518,1.222
				l-34.64,20.88l-8.505,5.047c-1.815-0.752-3.724,1.1-5.277,1.891l-34.05,20.335c-0.639,0.577-2.26,0.818-2.372,2.061
				c-0.114,0.136-0.441,0.135-0.377,0.354c-6.165,4.25-14.166,8.603-21.209,12.914l-1.416-0.074l-38.987,23.133
				c-0.875,0.063-1.134,1.394-2.061,1.81l-38.358,22.763l-0.903-4.167l35.315-21.281c0.692,0.176,1.283-0.37,1.93-0.493
				l40.581-24.078c0.242-0.471-0.005-1.107,0.429-1.365c6.987-4.078,13.839-8.275,20.486-12.48
				C258.299,365.943,259.119,365.782,259.892,365.65"/>
			<path fill="#E2231A" d="M349.105,319.179l0.696,0.178l13.177-7.95l0.535-0.973l41.838-24.823c0.461,0.116,0.387-0.229,0.819-0.16
				c0.987,0.784,1.929,1.6,2.829,2.567l-0.68,0.729l-43.324,25.838c-0.713,0.228-1.605,1.475-2.664,0.796l-10.288,6.105
				c-0.28,0.626-0.808,1.064-1.116,1.642l-43.182,25.754l-1.077-0.273l-32.367,19.204l-6.562,4.025
				c-0.301,0.702-0.787,1.316-1.434,1.764l-21.661,12.593c-0.299,0.049-0.56-0.062-0.867-0.14l-38.783,23.145l-0.921,0.875
				l-42.668,25.514c-0.523-1.323-1.218-2.938-1.134-4.556l15.796-9.046l23.382-13.873l2.992-1.122
				c12.658-7.838,25.411-15.079,38.555-23.204l0.236-0.923l22.849-13.559c0.087,0.145,0.171,0.289,0.057,0.423l1.348-0.147
				l32.285-19.351l6.51-3.994l0.336-1.31l28.491-17.038C338.287,325.273,343.636,321.186,349.105,319.179"/>
			<path fill="#E2231A" d="M353.805,324.23c3.08-1.633,5.691-3.836,8.791-5.218l0.719-1.211l47.443-28.149
				c0.734,1.131,2.09,1.764,2.651,2.932l-47.548,28.739c-1.035,0.351-2.256,1.925-3.584,1.341l-7.478,4.567l-0.295,0.827
				l-42.414,25.17l-1.012-0.054L273.3,375.59l-0.479,1.067l-23.469,14.056l-1.165-0.092l-38.117,22.946l-46.76,28.202l-0.355-0.052
				l-1.098-4.051l44.252-26.261l1.021-0.147l38.32-22.935l0.576-1.124l22.452-13.126l2.18-0.512l37.935-22.705l0.323-1.106
				l43.48-25.472L353.805,324.23z"/>
			<path fill="#E2231A" d="M353.561,330.645c0.871-0.516,2.162-0.758,3.244-1.139c2.088-1.436,4.762-2.434,6.367-4.236l0.1-0.387
				l34.346-20.053l17.538-10.406c1.036,0.758,1.794,1.812,2.694,2.778c-0.216,0.52-1.149,0.484-1.152,1.141l-0.385-0.098
				l-51.75,30.904c-0.379,0.025-0.894,0.92-1.487,0.358c-2.543,1.77-4.897,2.314-6.813,4.695L317.9,357.292
				c-0.596,0.092-1.168,0.563-1.842,0.308l-37.777,22.419l-0.661,0.979l-23.526,13.962l-1.081,0.052l-37.284,22.256l-0.438,0.585
				l-49.315,29.394c0.046,0.302-0.281,0.3-0.398,0.434c-1.257-0.69-1.288-2.502-1.906-3.768l1.961-1.427l46.34-27.365l7.1-3.887
				l31.22-18.721c1.145-1.594,3.564-2.246,5.055-3.587l18.553-11.008l1.358-0.023l33.526-19.895l4.553-2.896
				c0.071-0.762,0.864-1.297,1.436-1.767L353.561,330.645z"/>
			<path fill="#E2231A" d="M279.127,381.998c0.742,0.148,1.387,0.025,2.071-0.252l35.858-21.471c0.928-0.094,0.862-1.298,1.59-1.728
				l38.742-22.99c0.797,0.245,1.485-0.358,2.182-0.509c1.313-0.976,3.418-1.506,3.943-2.93l55.896-33.165l2.356,2.976l-4.254,2.853
				l-32.705,19.404l-19.354,11.748c-0.609,0.294-1.255,0.418-1.987,0.396l-3.828,2.468l-0.099,0.383l-8.097,5.068l-30.105,17.731
				l-0.684-0.052l-36.718,21.788l-0.562,0.921l-24.832,14.733l-0.878,0.064c-12.822,7.674-23.488,13.806-36.679,21.959l-0.127,0.337
				l-52.765,31.506l-0.339,0.199c-0.253-1.417-1.604-2.706-1.387-4.207l50.775-30.126l0.877-0.065l36.961-22.255
				c-0.241-0.514,0.464-0.537,0.561-0.923L279.127,381.998z"/>
			<path fill="#E2231A" d="M359.326,341.464c0.201,0.339,0.561,0.062,0.867,0.14c1.623-0.897,3.881-1.716,4.774-3.29l57.209-33.815
				c0.144-0.412,0.669-0.527,1.005-0.726c0.94,0.812,1.606,2.048,2.461,3.043l-24.351,14.776L365.35,342.92l-0.386-0.098
				c-1.495,0.56-3.196,1.767-4.291,3.002l-34.163,20.142l-0.781,0.007l-36.718,22.113l-0.138,0.54l-25.834,15.133
				c-4.865,2.039-9.681,5.483-14.356,8.062l-0.05,0.354l-53.094,31.834l-25.993,15.423c0.278-1.403-1.229-2.731-1.184-4.197
				l54.194-31.959l37.344-22.159l0.195-0.442l24.772-14.83l1.264,0.034l36.679-21.961c-0.045-0.626,0.516-0.892,0.813-1.267
				L359.326,341.464z"/>
			<path fill="#E2231A" d="M291.361,389.957l36.805-21.969l0.773-1.113l32.185-18.966c1.815-0.357,3.554-1.391,4.737-2.812
				l18.55-11.007l27.147-15.784l15.654-9.287c0.669,0.909,1.454,1.686,1.961,2.755l-33.822,20.396
				c-9.186,5.318-19.283,11.639-28.744,17.382c-1.603,0.494-4.002,1.068-4.676,2.906l-29.566,17.545l-1.176,0.109l-36.667,21.758
				l0.006,0.453l-25.692,15.375l-1.021,0.149l-36.378,21.584l-0.098,0.387l-58.697,34.829l-1.68-3.382l0.436-0.586l80.147-47.229
				l13.237-7.854l0.59-0.874c8.505-5.046,16.621-9.858,25.123-14.905L291.361,389.957z"/>
			<path fill="#E2231A" d="M295.657,394.006c0.182,0.414,0.494-0.161,0.782-0.005l36.802-21.97l0.495-0.816l28.504-16.913
				c0.346,0.251,0.828-0.035,1.205-0.062c1.847-1.293,3.391-2.209,5.076-3.665l58.453-34.356l3.572-2.121
				c0.77,0.852,1.469,1.807,2.051,2.899l-64.675,38.961c-1.682-0.308-2.828,1.614-4.257,2.07l-0.475,0.737L336.66,374.38
				c-12.354,6.479-24.477,14.783-37.246,21.773l-0.38,0.681l-28.897,17.021c-10.765,6.516-23.141,13.729-33.228,19.518l-0.157,0.617
				l-61.063,36.231c-0.603-1.015-1.578-2.329-1.969-3.533l59.144-35.289l0.386,0.098l33.132-19.791
				c0.949-1.152,2.711-1.152,3.528-2.421C278.932,404.127,287.148,398.598,295.657,394.006"/>
			<path fill="#E2231A" d="M362.62,361.327c0.925-0.093,1.766-0.657,2.665-1.123c1.072-0.508,2.665-1.125,3.189-2.221l18.696-11.095
				l46.578-27.181c-0.039-0.176,0.137-0.212,0.278-0.298l1.762,2.744L405.07,340.84c-10.521,6.046-23.674,14.373-35.788,21.367
				c-1.718,0.625-3.735,1.627-5.035,3.183l-22.224,13.188l-0.385-0.099l-64.108,38.364l-77.539,46.015l-21.44,12.521l-1.862-3.14
				l63.673-37.782l35.008-21.032l63.188-37.496l0.194-0.441L362.62,361.327z"/>
			<path fill="#E2231A" d="M367.605,366.206c1.446-0.533,1.963-1.753,3.276-2.402l19.864-11.654l28.802-16.959l17.777-10.224
				c0.218,0.916,0.909,1.748,1.423,2.617l-59.896,36c-3.818,2.593-8.856,4.666-12.523,7.625l-38.842,23.049l-17.633,10.463
				c-0.75-0.272-1.016,0.603-1.498,0.89l-24.105,14.304l-2.842,1.816l-28.029,16.5l-67.007,39.762
				c-1.286,1.023-3.305,2.025-4.338,2.704c-0.872-0.919-1.445-2.211-2.104-3.322l79.944-47.241
				c14.93-9.187,31.44-18.787,45.81-27.377c1.095,0.196,1.237-0.997,2.068-1.357l36.521-21.673l0.039-0.153
				C352.253,375.447,359.969,369.628,367.605,366.206"/>
			<path fill="#E2231A" d="M351.341,382.717c9.479-5.82,18.685-10.562,28.067-16.653l60.531-35.592
				c0.58,0.765,1.264,1.798,1.383,2.771l-84.834,50.992l-6.475,3.841l-26.092,15.808l-6.714,3.983l-0.683-0.051
				c-9.207,5.069-18.117,10.748-27.201,16.139l-26.032,15.904l-9.718,5.311l-68.262,40.504c-0.564-0.842-1.164-2.183-1.949-2.957
				l111.307-66.046c6.881-4.476,13.033-7.54,19.412-11.979L351.341,382.717z"/>
			<path fill="#E2231A" d="M301.389,419.736c5.748-3.084,10.613-6.886,16.186-9.932l35.942-21.324
				c1.181-0.439,2.047-0.954,2.996-1.779l33.332-19.452l45.025-26.389l7.729-4.587c0.557,0.718,0.859,1.777,1.327,2.676
				l-84.345,50.503c-1.322,0.852-2.896,1.394-3.857,2.747l-33.438,19.711l-11.837,7.023l-0.484-0.041
				c-8.307,4.604-16.528,9.676-24.242,14.844c-10.086,5.79-19.481,12.082-29.823,17.108L189.29,490.5l-2.164-2.77l67.393-39.985
				l4.167-2.997c10.964-5.853,21.144-13.133,31.873-18.388L301.389,419.736z"/>
			<path fill="#E2231A" d="M299.025,428.521c4.793-3.041,9.064-5.312,13.952-8.737c3.662-1.646,7.248-3.972,10.397-6.038
				l0.099-0.386l34.726-20.407c2.819-1.412,5.825-3.393,8.752-5.063l40.291-23.581l37.778-22.418
				c0.344,0.908,0.856,1.778,0.948,2.703l-17.346,10.619l-51.354,30.8c-16.888,9.63-34.062,20.865-50.486,30.282
				c-5.917,2.467-10.918,6.48-16.858,9.679l-10.48,5.894c-2.103,2.292-4.883,3.549-7.569,5.407l-27.788,16.357l-0.78,0.005
				l-70.147,41.622c-0.662-0.782-1.421-1.508-2.012-2.397l0.098-0.387l69.511-41.375
				C273.669,443.696,285.516,435.036,299.025,428.521"/>
			<path fill="#E2231A" d="M300.865,434.483c6.382-3.005,10.689-7.193,17.109-10.021c3.278-2.405,7.631-4.204,10.854-7.027
				l30.048-17.831l15.042-8.666l28.069-16.653l45.263-26.204c0.392,0.878,0.804,1.679,0.942,2.574l-28.164,16.714l-25.945,15.722
				c-20.41,12.5-41.414,25.094-61.249,36.801c-7.06,3.404-13.487,7.547-20.001,11.541c-3.102,1.707-6.025,3.053-9.188,5.321
				c-3.011,2.962-7.654,4.932-11.24,7.255c-7.402,4.59-15.602,8.935-23.103,13.579l-0.723,0.103l-54.057,31.75l-17.21,10.408
				l-2.155-2.314l47.876-28.734l23.104-13.905l0.466-0.536c10.899-6.4,22.475-13.529,33.537-20.097L300.865,434.483z"/>
			<path fill="#E2231A" d="M305.12,439.014c4.519-1.635,8.233-5.604,12.8-7.268l15.848-9.732l0.961-1.024l32.859-19.367
				c7.689-4.107,15.678-8.911,23.379-13.219l40.098-23.792l17.933-10.512c0.614,0.812,1.06,2.113,0.796,2.991l-0.087-0.146
				l-27.683,16.426l-35.364,21.312l-9.275,5.506l-0.38,0.681l-40.059,23.641c-6.944,3.597-13.959,7.955-20.686,12.144
				c-1.938,2.13-4.98,1.845-7.043,3.982c-0.427,0.711-1.335,1.052-1.553,1.899c-11.349,6.41-21.892,12.859-33.126,19.134
				c-0.348-0.25-0.82,0.159-1.264,0.294l-70.003,41.538c-0.549,0.063-0.825,1.142-1.604,0.82l-2.097-2.217l71.308-42.639
				c-0.238-0.839,0.937-0.951,1.249-1.524l32.453-19.062L305.12,439.014z"/>
			<path fill="#E2231A" d="M310.111,442.911c0.49,0.167,1.119-0.206,1.688-0.349c1.799-1.262,3.251-2.778,5.365-3.836l0.145,0.24
				c7.176-3.866,14.433-8.37,21.787-12.932l0.041-0.481l33.586-19.794c5.551-2.314,11.391-6.562,16.76-9.293l32.078-19.033
				l29.43-17.005c0.266,0.888,0.251,1.743,0.736,2.565l-45.072,26.746l-29.424,17.784l-0.125,0.337l-34.541,20.496l-1.662,0.724
				l-23.565,14.113l-1.104,1.113l-36.039,21.386c-0.038-0.178-0.289-0.154-0.441-0.194l-3.96,2.022l-69.424,41.191l-1.955-1.973
				l0.774-0.788l41.595-24.681l29.85-18.17l1.054-1.085C288.68,455.562,299.706,448.824,310.111,442.911"/>
			<path fill="#E2231A" d="M318.471,445.658l25.69-15.375l0.688-0.932l32.803-19.466l1.014,0.054l20.189-11.653l42.562-25.255
				l10.869-6.45c0.354,0.707,0.626,1.72,0.613,2.576l-19.566,11.938l-30.291,17.974L378.8,413.911l-0.196,0.44
				c-10.125,6.271-20.029,12.147-30.482,18.091c-0.71-0.102-1.13,0.406-1.747,0.576l-27.681,16.429l-1.213,1.369l-31.304,18.574
				c-0.605-0.355-1.342,0.276-1.987,0.396l-72.707,43.146l-0.04,0.15c-0.622-0.937-1.882-1.299-2.252-2.255
				c0.114-0.133,0.276,0.031,0.48,0.041l19.567-11.938l52.37-31.4l0.052-0.687l10.136-6.144l25.808-15.184L318.471,445.658z"/>
			<path fill="#E2231A" d="M320.223,451.804l29.074-17.383l0.812-0.938l28.945-16.719l4.78-2.512l69.711-41.037
				c0.045,0.953,0.937,2.124,0.034,2.918l-23.868,14.163l-49.188,29.383l-1.627,1.554l-26.144,15.383l-1.159,0.359l-32.213,19.246
				c-0.207,0.646-1.133,0.734-1.309,1.43l-26.183,15.536c-1.579-0.237-3.071,1.433-4.346,1.926l-58.328,34.348L216.8,516.83
				c-1.203-0.268-1.873-1.176-2.775-1.813l72.96-43.49l0.659-0.978c9.402-5.841,20.32-12.319,29.663-17.603
				C318.328,452.797,319.266,452.177,320.223,451.804"/>
			<path fill="#E2231A" d="M318.76,459.138c1.088,0.072,2.018-0.671,3.049-1.023l32.814-19.668
				c7.845-6.156,15.962-9.209,24.475-14.783c0.438-0.259,1.301-0.118,1.258-0.745c0.086,0.145,0.309,0.078,0.442,0.193
				l20.576-11.882l30.34-18.005l22.666-13.317c0.208,0.791,0.446,1.631,0.403,2.438l-30.475,18.212l-42.611,25.612
				c-5.217,4.531-12.283,7.812-18.209,11.589c-2.725,2.011-5.389,2.805-8.363,4.18l-34.736,20.937l-0.283,0.625l-23.863,14.163
				l-0.539-0.14l-49.758,29.198l-23.712,14.201c-0.961-0.411-1.768-1.105-2.593-1.729l27.103-16.409l18.311-10.863l26.853-16.064
				c0.234-0.595,1.227-0.793,1.066-1.611L318.76,459.138z"/>
			<path fill="#E2231A" d="M319.837,465.686c0.894,0.188,1.63-0.442,2.42-0.653l37.345-22.158l0.9-1.123l19.954-11.837
				c0.78-0.007,1.476-0.487,2.235-0.742l3.141-1.535l27.975-16.599l30.635-18.048l10.578-5.95c0.258,0.763,0.166,1.601,0.201,2.428
				l-72.845,43.682c-1.562,2.102-4.668,3.03-6.71,4.765l-11.924,6.881l-1.318,0.194l-41.016,24.338
				c-0.379,0.681-1.184,1.091-1.725,1.61l-17.546,10.607c-0.597,0.094-1.263-0.034-1.841,0.31l-72.215,42.651
				c-1.021-0.179-1.903-0.894-2.776-1.486l8.003-5.01l63.924-38.127c0.33-0.325,0.438-0.586,0.479-1.065
				C305.063,474.254,312.455,469.868,319.837,465.686"/>
			<path fill="#E2231A" d="M322.688,472.03l42.078-24.97l0.717-1.211l15.414-9.145c0.722,0.227,1.535-1.042,2.42-0.651l12.386-7.092
				l44.966-26.483l14.793-8.647l0.02,2.67l-71.506,42.754c-0.562,0.92-1.396,1.611-2.256,2.253c-5.06,2.48-9.406,6.824-14.699,7.809
				L330.4,471.046l-8.215,5.2c-0.168,0.49-0.547,0.846-1.056,1.086l-12.95,8.008c-0.936-0.033-1.729,0.83-2.652,0.596L280.6,500.399
				l-46.763,27.749l-2.393-1.391l27.771-16.938l15.17-8.999l27.335-16.354c2.482-3.299,7.55-5,11.107-7.698
				C316.13,475.4,319.177,472.283,322.688,472.03"/>
			<path fill="#E2231A" d="M382.84,442.408c0.482,0.369,1.234-0.014,1.891-0.01c6.971-3.551,13.371-7.737,20.336-11.738
				l33.285-19.425l17.053-10.12c0.064,0.876,0.078,1.783-0.155,2.705l-69.097,41.194c-2.561,3.284-6.827,5.229-10.334,7.243
				c-1.012,0.274-1.932,1.146-3.088,0.854l-48.115,28.552c-3.121,3.548-8.352,5.74-12.604,8.264l-1.078,0.052l-20.678,11.94
				L240.4,531.502c-0.913-0.438-1.923-0.819-2.719-1.39l69.703-41.821c0.832-0.688,1.271-1.599,2.161-2.194
				c4.798-2.586,9.459-6.396,14.458-7.664l35.7-20.855l9.914-6.078c0.34-0.528,0.938-0.949,0.953-1.807L382.84,442.408z"/>
			<path fill="#E2231A" d="M324.114,485.552l51.015-30.27l0.574-1.125l9.122-5.544c0.729,0.023,1.714,0.027,2.524-0.258
				l40.183-23.647l25.083-14.751l2.465-1.464l-0.217,2.607l-67.684,40.49c-1.547,2.683-4.787,3.494-7.445,5.397l-2.023,0.22
				l-51.354,30.474c-1.197,0.516-2.127,1.59-2.942,2.53c-2.742,1.432-4.794,3.365-7.794,4.036l-68.492,40.447
				c-0.943-0.486-2-0.84-2.876-1.431l28.788-17.54l40.087-23.916c2.026-2.641,6.013-3.961,9.239-6.006L324.114,485.552z"/>
			<path fill="#E2231A" d="M325.7,491.861l54.687-32.452l0.875-1.499c2.154-0.883,4.334-3.481,6.865-2.962l0.918-0.544
				l24.829-14.406l30.051-17.83c3.187-1.562,6.53-3.743,10.249-5.951c0.953,3.811-4.296,3.987-6.175,6.211l-59.462,35.414
				c-1.357,1.783-3.439,3.673-5.896,3.497l-56.728,33.857c-1.097,1.893-3.646,2.88-5.651,3.354l-65.51,38.872
				c-0.983,0.322-2.066-0.732-3.242-0.952l0.225-0.394l38.023-22.889l27.246-16.166c1.415-2.019,3.385-2.662,5.451-4.021
				C323.191,492.369,324.553,492.019,325.7,491.861"/>
			<path fill="#E2231A" d="M327.635,498.094l46.959-27.862l11.014-6.538c0.42-1.161,1.68-1.908,2.855-2.349
				c0.633,0.084,1.186-0.309,1.782-0.402l60.831-35.637l1.941-1.023c-0.285,1.61-0.556,3.466-2.305,4.047l-152.862,90.575
				l-35.847,21.27l-3.3-1.048l51.937-31.144c4.215-2.695,9.601-5.176,13.172-8.402c0.369-0.481,1.045-0.883,1.644-0.977
				L327.635,498.094z"/>
			<path fill="#E2231A" d="M351.898,490.88l56.729-33.528l42.605-24.955l-0.766,3.003l-37.104,22.017
				c-0.162,0.161,0.127,0.316,0.164,0.491c-0.405,0.306-0.201-0.337-0.5-0.291L270.915,542.2c-1.101,0.458-2.792-0.302-4.081-0.712
				l34.146-20.394l5.654-3.684l34.011-19.854L351.898,490.88z"/>
			<path fill="#E2231A" d="M407.809,464.89l41.062-24.036l0.186,0.09c-0.537,0.97-0.832,2.123-1.231,3.209l-9.034,5.36
				l-157.724,93.722c-1.426,1.891-3.753,0.723-5.59,0.379l0.379-0.684l58.23-34.294L407.809,464.89z"/>
			<path fill="#E2231A" d="M445.771,449.941l-1.17,3.309l-70.004,41.537l-85.654,51.155c-1.388-0.354-2.765-0.258-4.179-0.656
				l0.678-0.73l160.147-94.699L445.771,449.941z"/>
			<path fill="#E2231A" d="M441.447,459.825c-0.122,1.441-0.977,2.539-1.779,3.604l-139.91,83.018l-0.579,0.344l-0.142-0.241
				l-3.835-0.073l0.001-0.328l111.346-65.874L441.447,459.825z"/>
			<path fill="#E2231A" d="M372.204,507.704l34.744-20.485l29.083-17.257l0.199,0.338c-0.957,1.355-2.16,2.523-2.883,4.062
				l-37.979,22.407c-0.45-0.319-0.542,0.189-0.726,0.429l-63.867,37.896c-6.164,3.922-12.621,6.906-19.072,11.451
				c-1.54,0.263-3.159,0.177-4.747,0.141l0.221-0.396l27.404-16.456l8.541-4.87L372.204,507.704z"/>
			<path fill="#E2231A" d="M429.475,481.365l-2.787,4.004l-101.307,60.113c-1.648,0.194-3.248,0.36-4.896,0.553l-0.201-0.336
				l109.033-64.371L429.475,481.365z"/>
			<path fill="#E2231A" d="M419.419,494.253l0.153,0.042c-1.262,1.729-3.079,3.068-4.34,4.797l-65.605,39.256
				c-2.193,1.037-4.7,3.312-7.438,3.76c-2.018,0.675-4.438,1.325-6.153,1.3l21.495-12.431L419.419,494.253z"/>
			<path fill="#E2231A" d="M403.195,510.285c-8.262,8.426-19.598,15.415-30.653,20.997c-4.604,1.814-8.104,4.286-12.978,5.544
				l0.922-0.872l23.964-14.547C390.825,517.625,397.443,513.696,403.195,510.285"/>
		</g>
	</g>
	<g>
		<defs>
			<ellipse id="SVGID_5_" cx="305.739" cy="396.592" rx="149.538" ry="149.998"/>
		</defs>
		<clipPath id="SVGID_6_">
			<use xlink:href="#SVGID_5_"  overflow="visible"/>
		</clipPath>
		<rect id="_x3C_Slice_x3E__1_" x="156" y="246" clip-path="url(#SVGID_6_)" fill="none" width="300" height="301"/>
	</g>
</g>
</svg>
